<?xml version="1.0" encoding="UTF-8"?><svg id="uuid-4ba11e65-5edd-4dc2-a487-14ab97f1469b" xmlns="http://www.w3.org/2000/svg" viewBox="0 0 78.1 78.1"><defs><style>.uuid-90db4b6e-90be-406d-9d87-c0de810a7522{fill:#fff;opacity:.7;}</style></defs><g id="uuid-7b32a13c-cf4a-409e-af12-c0e57876d273"><path class="uuid-90db4b6e-90be-406d-9d87-c0de810a7522" d="M39,78.1c21.6,0,39-17.5,39-39S60.6,0,39,0,0,17.5,0,39s17.5,39,39,39ZM19.8,36.1l28.1-24.4c1-.9,2.2-1.3,3.4-1.3s2.9.6,3.9,1.8c1.9,2.2,1.7,5.5-.5,7.3l-23.6,20.5,21.2,18.6c2.2,1.9,2.4,5.2.5,7.3-1.9,2.2-5.2,2.4-7.3.5l-25.7-22.5c-1.1-1-1.8-2.4-1.8-3.9,0-1.5.7-2.9,1.8-3.9Z"/></g></svg>