<?xml version="1.0" encoding="UTF-8"?><svg id="uuid-bef5fa09-a146-41d1-bb5e-be4dfe7b0a27" xmlns="http://www.w3.org/2000/svg" viewBox="0 0 59.4 99"><g id="uuid-f68c2343-f87b-42c8-9536-efed259f6bfd"><path d="M57.9,67.1h-20.5c0-.2,0-.4-.1-.6l9.9-3.8c.8-.3,1.2-1.2.9-1.9-.3-.8-1.2-1.2-1.9-.9l-9.4,3.6,13.9-13.9c.6-.6.6-1.5,0-2.1-.6-.6-1.5-.6-2.1,0l-14.4,14.4c-.1-.1-.3-.2-.5-.3l4.4-10c.3-.8,0-1.6-.8-2-.8-.3-1.6,0-2,.8l-4.2,9.4V1.5c0-.8-.7-1.5-1.5-1.5s-1.5.7-1.5,1.5v58.5l-4.2-9.4c-.3-.8-1.2-1.1-2-.8-.8.3-1.1,1.2-.8,2l4.4,9.9c-.2.1-.3.2-.5.3l-14.3-14.3c-.6-.6-1.5-.6-2.1,0-.6.6-.6,1.5,0,2.1l13.9,13.9-9.4-3.6c-.8-.3-1.6,0-1.9.9-.3.8,0,1.6.9,1.9l9.9,3.8c0,.2,0,.4-.1.6H1.5c-.8,0-1.5.7-1.5,1.5s.7,1.5,1.5,1.5h20.4l-9.9,4.4c-.8.3-1.1,1.2-.8,2,.2.6.8.9,1.4.9s.4,0,.6-.1l10-4.4s0,0,0,.1l-14.7,14.7c-.6.6-.6,1.5,0,2.1.3.3.7.4,1.1.4s.8-.1,1.1-.4l14.7-14.7c0,0,.1,0,.2.1l-4.1,10.7c-.3.8,0,1.6.9,1.9.2,0,.4.1.5.1.6,0,1.2-.4,1.4-1l3.7-9.7v20.2c0,.8.7,1.5,1.5,1.5s1.5-.7,1.5-1.5v-20.3l3.7,9.7c.2.6.8,1,1.4,1s.4,0,.5-.1c.8-.3,1.2-1.2.9-1.9l-4.1-10.6c0,0,.1,0,.2-.1l14.7,14.7c.3.3.7.4,1.1.4s.8-.1,1.1-.4c.6-.6.6-1.5,0-2.1l-14.6-14.6c0,0,0,0,.1-.2l9.9,4.4c.2,0,.4.1.6.1.6,0,1.1-.3,1.4-.9.3-.8,0-1.6-.8-2l-9.9-4.4h20.4c.8,0,1.5-.7,1.5-1.5s-.7-1.5-1.5-1.5ZM33.5,68.4c0,2.1-1.7,3.8-3.8,3.8s-3.8-1.7-3.8-3.8,1-2.9,2.3-3.5v3.5c0,.8.7,1.5,1.5,1.5s1.5-.7,1.5-1.5v-3.5c1.4.6,2.3,1.9,2.3,3.5Z"/></g></svg>