<?xml version="1.0" encoding="UTF-8"?><svg id="uuid-dcff7710-9a0d-4ec8-ac29-763db991885e" xmlns="http://www.w3.org/2000/svg" viewBox="0 0 61.8 103"><defs><style>.uuid-b68f849c-b5a4-429c-84e8-75b31d4a9d54{fill:#fff;}</style></defs><g id="uuid-a8e6aba5-00cc-4fca-a377-c491d594a1ec"><path class="uuid-b68f849c-b5a4-429c-84e8-75b31d4a9d54" d="M60.2,69.9h-21.3c0-.2,0-.4-.1-.6l10.3-4c.8-.3,1.2-1.2.9-2-.3-.8-1.2-1.2-2-.9l-9.8,3.8,14.5-14.5c.6-.6.6-1.6,0-2.2-.6-.6-1.6-.6-2.2,0l-15,15c-.2-.1-.3-.2-.5-.3l4.6-10.4c.3-.8,0-1.7-.8-2.1-.8-.4-1.7,0-2.1.8l-4.3,9.7V1.6c0-.9-.7-1.6-1.6-1.6s-1.6.7-1.6,1.6v60.9l-4.3-9.7c-.3-.8-1.3-1.1-2.1-.8-.8.3-1.1,1.3-.8,2.1l4.6,10.3c-.2.1-.3.2-.5.3l-14.9-14.9c-.6-.6-1.6-.6-2.2,0-.6.6-.6,1.6,0,2.2l14.5,14.5-9.8-3.8c-.8-.3-1.7,0-2,.9-.3.8,0,1.7.9,2l10.3,4c0,.2,0,.4-.1.6H1.6c-.9,0-1.6.7-1.6,1.6s.7,1.6,1.6,1.6h21.3l-10.3,4.5c-.8.3-1.1,1.3-.8,2.1.3.6.8.9,1.4.9s.4,0,.6-.1l10.4-4.6s0,0,0,.1l-15.2,15.2c-.6.6-.6,1.6,0,2.2.3.3.7.5,1.1.5s.8-.2,1.1-.5l15.3-15.3c0,0,.1,0,.2.1l-4.3,11.1c-.3.8,0,1.7.9,2,.2,0,.4.1.6.1.6,0,1.2-.4,1.5-1l3.9-10.1v21c0,.9.7,1.6,1.6,1.6s1.6-.7,1.6-1.6v-21.2l3.9,10.1c.2.6.8,1,1.5,1s.4,0,.6-.1c.8-.3,1.2-1.2.9-2l-4.3-11c0,0,.2,0,.2-.1l15.3,15.3c.3.3.7.5,1.1.5s.8-.2,1.1-.5c.6-.6.6-1.6,0-2.2l-15.2-15.2c0,0,0-.1.1-.2l10.3,4.6c.2,0,.4.1.6.1.6,0,1.2-.3,1.4-.9.3-.8,0-1.7-.8-2.1l-10.3-4.5h21.3c.9,0,1.6-.7,1.6-1.6s-.7-1.6-1.6-1.6ZM34.9,71.2c0,2.2-1.8,4-4,4s-4-1.8-4-4,1-3.1,2.4-3.7v3.7c0,.9.7,1.6,1.6,1.6s1.6-.7,1.6-1.6v-3.7c1.4.6,2.4,2,2.4,3.7Z"/></g></svg>