<?xml version="1.0" encoding="UTF-8"?><svg id="uuid-8565744e-1005-41a5-b5fe-082e8f7f68f1" xmlns="http://www.w3.org/2000/svg" viewBox="0 0 800.2 800.2"><defs><style>.uuid-22d4798b-567d-4ebb-a25f-0de1bd7f4df0{fill:#fff;}</style></defs><g id="uuid-4128487c-9857-4b75-810d-aed64a12dce4"><path class="uuid-22d4798b-567d-4ebb-a25f-0de1bd7f4df0" d="M800.2,0v800.2H0V0h800.2ZM399.9,21.8c-1.1,0-2.9.4-3.9.7-4,1.4-13,12.3-16.7,15.9-63.1,60.9-146.2,96.8-234.1,100.7-11.6.5-26-.8-36.9.5-8.4,1-9.3,8-10.6,14.8s-3.2,19.3-4.4,28.7c-25.5,197.2,19.3,429.4,197.6,542.4,27.2,17.3,71.5,43,102.1,51.4,8.3,2.3,9.1,1.9,17-.7,65.7-22,131.6-66.3,178-117.5,109.6-121.2,137.1-299.2,120.6-457.4-1.6-15.8-3.6-36.8-7.5-52-1.2-4.8-4.2-9.1-9.5-9.7-10.3-1.2-23.4.4-34.1,0-47-1.7-97.5-14.1-140-34.1-35.8-16.9-67.7-42.7-97.2-68.8-5.1-4.5-13.6-15-20.3-14.9Z"/><path class="uuid-22d4798b-567d-4ebb-a25f-0de1bd7f4df0" d="M399.9,21.8c6.7,0,15.2,10.5,20.3,14.9,29.5,26,61.4,51.8,97.2,68.8,42.5,20.1,93,32.5,140,34.1s23.8-1.2,34.1,0,8.3,4.9,9.5,9.7c3.9,15.1,5.9,36.2,7.5,52,16.5,158.2-11,336.2-120.6,457.4-46.3,51.2-112.2,95.6-178,117.5s-8.7,3-17,.7c-30.6-8.4-74.9-34.1-102.1-51.4C112.5,612.5,67.6,380.2,93.1,183.1c1.2-9.4,2.6-19.5,4.4-28.7s2.2-13.8,10.6-14.8c10.9-1.2,25.3,0,36.9-.5,87.9-3.9,171-39.9,234.1-100.7,3.8-3.6,12.8-14.5,16.7-15.9s2.9-.7,3.9-.7ZM680.7,162.2c-58.6,1-117.9-10.9-170.9-35.6-40.9-19-75.9-47.9-109.4-77.6-21.9,21.4-45.7,40.8-71.8,56.8-56.9,34.9-122.3,53.9-189.2,56.4h-20.4c-1.9,10.8-3.5,21.6-4.8,32.4-22.5,191.9,22.6,414.7,200.1,519.3,27.4,16.2,56.3,30.1,85.8,42,75.2-26.5,142.3-73,191-136.2,89.4-116.1,110.3-276.7,94.8-419.5-1.4-12.7-3.4-25.4-5.3-38.1Z"/><path class="uuid-22d4798b-567d-4ebb-a25f-0de1bd7f4df0" d="M680.7,162.2c1.9,12.7,3.9,25.4,5.3,38.1,15.5,142.7-5.4,303.4-94.8,419.5-48.7,63.2-115.8,109.7-191,136.2-29.5-11.9-58.4-25.9-85.8-42C136.8,609.2,91.8,386.5,114.2,194.6c1.3-10.8,2.9-21.7,4.8-32.4h20.4c66.9-2.6,132.3-21.6,189.2-56.5,26.1-16,50-35.4,71.8-56.8,33.5,29.7,68.5,58.6,109.4,77.6,53,24.7,112.4,36.6,170.9,35.6ZM399,98.5c-6.3.4-9.4,6.3-13.3,10.2-58,57.1-125.6,84-207.5,83.2s-4.2-1-7.9.2-6.3,4.9-7.5,9.3c-2.5,9.8-3.8,22.7-5,32.9-14.9,129.1,7,279.1,98.3,377,28.2,30.2,66.2,53.8,102.7,72.9,9,4.7,33.8,17.8,43,17.5s23.4-8.4,29.3-11c173-75.9,227.1-258.5,212.7-435.4-1.3-15.4-3.1-41.1-7.4-55.4s-5.2-8.3-10.6-8.6-3.2.5-4.8.5c-56.4.5-111.7-12.4-158.4-44.5-14.7-10.1-28.6-21.7-41.9-33.4-5.4-4.8-14.2-16-21.7-15.5Z"/><path class="uuid-22d4798b-567d-4ebb-a25f-0de1bd7f4df0" d="M399,98.5c7.4-.5,16.2,10.7,21.7,15.5,13.3,11.8,27.2,23.3,41.9,33.4,46.7,32.2,102,45.1,158.4,44.5,1.6,0,2.9-.6,4.8-.5,5.4.3,9.1,3.6,10.6,8.6,4.3,14.3,6.2,40,7.4,55.4,14.4,176.9-39.6,359.5-212.7,435.4-5.9,2.6-23.9,10.8-29.3,11-9.1.3-34-12.8-43-17.5-36.5-19.1-74.5-42.7-102.7-72.9-91.3-97.9-113.2-248-98.3-377s2.5-23.1,5-32.9,2.8-7.8,7.5-9.3,4.7-.3,7.9-.2c81.9.8,149.5-26.1,207.5-83.2s7.1-9.8,13.3-10.2ZM616.4,214.4c-19.3-.2-38.6-1.6-57.7-4.9-25-4.5-50-12.2-73-22.9-32-14.9-59.3-37.5-85.5-60.9-1,0-8.8,8.5-10.3,9.9-37.8,34.7-84.6,59.5-134.8,71-23.7,5.4-47.6,7.7-71.9,7.9-10.2,68-10.4,138.8,3.5,206.3,16.4,79.9,56.6,161.6,124.7,209.2,27.7,19.3,58.1,35.2,88.8,49.2,61.7-22.2,115.6-62.1,153.3-115.8,63.3-90.2,77.9-211.3,66.8-318.9-1-10-2.7-20-3.8-30Z"/><path class="uuid-22d4798b-567d-4ebb-a25f-0de1bd7f4df0" d="M616.4,214.4c1.1,10,2.8,20,3.8,30,11.1,107.7-3.5,228.7-66.8,318.9s-91.6,93.7-153.3,115.8c-30.7-14-61.1-29.8-88.8-49.2-68.1-47.6-108.3-129.2-124.7-209.2-13.8-67.5-13.7-138.3-3.5-206.3,24.3-.2,48.3-2.5,71.9-7.9,50.2-11.5,97-36.3,134.8-71s9.3-9.9,10.3-9.9c26.1,23.3,53.5,46,85.5,60.9,23,10.7,48,18.5,73,22.9,19,3.4,38.3,4.7,57.7,4.9ZM454.3,345.4v-75.6c0-3.2-5.8-9.1-9.4-8.9h-89.7c-4.8,0-9.8,5.8-9.8,10.3v74.1h-74.1c-4.5,0-10.4,5-10.3,9.8v89.7c0,3.7,5.4,9.4,8.9,9.4h75.6v74.6c0,4.7,6,10.5,10.8,10.3h87.8c3.9.2,10.3-5.2,10.3-8.9v-76h76c3.7,0,9.1-6.5,8.9-10.3v-87.8c-.3-4-3-8-6.7-9.6s-3.6-1.2-4.1-1.2h-74.1Z"/><path class="uuid-22d4798b-567d-4ebb-a25f-0de1bd7f4df0" d="M454.3,345.4h74.1c.4,0,3.4.9,4.1,1.2,3.8,1.5,6.5,5.5,6.7,9.6v87.8c.2,3.9-5.2,10.3-8.9,10.3h-76v76c0,3.7-6.5,9.1-10.3,8.9h-87.8c-4.8.2-10.8-5.7-10.8-10.3v-74.6h-75.6c-3.5,0-8.9-5.7-8.9-9.4v-89.7c0-4.8,5.8-9.8,10.3-9.8h74.1v-74.1c0-4.5,5-10.4,9.8-10.3h89.7c3.6-.2,9.4,5.7,9.4,8.9v75.6ZM431.7,283h-63.8v76c0,3-5.9,8.9-8.9,8.9h-76v63.8h74.1c1.3,0,5,1.5,6.2,2.4s4.6,4.9,4.6,7v75.6h63.8v-74.1c0-2.1,2-6,3.6-7.5s5.3-3.3,7.2-3.3h74.1v-63.8h-75.6c-3.9,0-9.4-6.6-9.4-10.3v-74.6Z"/><path class="uuid-22d4798b-567d-4ebb-a25f-0de1bd7f4df0" d="M431.7,283v74.6c0,3.8,5.5,10.3,9.4,10.3h75.6v63.8h-74.1c-1.9,0-5.8,1.9-7.2,3.3s-3.6,5.4-3.6,7.5v74.1h-63.8v-75.6c0-2.1-2.9-5.8-4.6-7s-4.9-2.4-6.2-2.4h-74.1v-63.8h76c3,0,8.9-5.9,8.9-8.9v-76h63.8Z"/></g></svg>