<?xml version="1.0" encoding="UTF-8"?><svg id="uuid-3bd402d3-2907-4f4f-8585-f5fc25a5b23e" xmlns="http://www.w3.org/2000/svg" viewBox="0 0 71.9 71.9"><defs><style>.uuid-cd701e81-63c2-47a1-ad39-063283b545ab{fill:#fff;}</style></defs><g id="uuid-9e7f36ed-6690-4af9-a83e-b7542e897d4c"><path class="uuid-cd701e81-63c2-47a1-ad39-063283b545ab" d="M67.4,0H4.4C2,0,0,2,0,4.4v63c0,2.4,2,4.4,4.4,4.4h63c2.4,0,4.4-2,4.4-4.4V4.4c0-2.4-2-4.4-4.4-4.4h0ZM69.6,4.4v17.5h-10.4c-.6-2.5-3.2-4.1-5.7-3.5-2.5.6-4.1,3.2-3.5,5.7.6,2.5,3.2,4.1,5.7,3.5,1.7-.4,3.1-1.8,3.5-3.5h10.4v9.3h-36.6c-.7,0-1.3-.6-1.3-1.3V2.2h17.9v9.7h-2.5c-.6-2.5-3.2-4.1-5.7-3.5-2.5.6-4.1,3.2-3.5,5.7.6,2.5,3.2,4.1,5.7,3.5,1.7-.4,3.1-1.8,3.5-3.5h3.6c.6,0,1.1-.5,1.1-1.1h0V2.2h15.6c1.2,0,2.2,1,2.2,2.2ZM57.2,23c0,1.4-1.1,2.5-2.5,2.5-1.4,0-2.5-1.1-2.5-2.5s1.1-2.5,2.5-2.5h0c1.4,0,2.5,1.1,2.5,2.5ZM45,13c0,1.4-1.1,2.5-2.5,2.5-1.4,0-2.5-1.1-2.5-2.5,0-1.4,1.1-2.5,2.5-2.5h0c1.4,0,2.5,1.1,2.5,2.5ZM15.5,60.2c-1.4,0-2.5-1.1-2.5-2.5s1.1-2.5,2.5-2.5,2.5,1.1,2.5,2.5h0c0,1.4-1.1,2.5-2.5,2.5h0ZM67.4,69.6h-23.7v-17.9c0-.6-.5-1.1-1.1-1.1h-6.5c-.6-2.5-3.2-4.1-5.7-3.5s-4.1,3.2-3.5,5.7c.6,2.5,3.2,4.1,5.7,3.5,1.7-.4,3.1-1.8,3.5-3.5h5.4v16.8h-24.9v-7.3c2.5-.6,4.1-3.2,3.5-5.7-.6-2.5-3.2-4.1-5.7-3.5-2.5.6-4.1,3.2-3.5,5.7.4,1.7,1.8,3.1,3.5,3.5v7.3H4.4c-1.2,0-2.2-1-2.2-2.2v-24.3h13.8c.6,2.5,3.2,4.1,5.7,3.5,2.5-.6,4.1-3.2,3.5-5.7-.6-2.5-3.2-4.1-5.7-3.5-1.7.4-3.1,1.8-3.5,3.5H2.2v-10.3h18.4c.6,0,1.1-.5,1.1-1.1v-5.3c2.5-.6,4.1-3.2,3.5-5.7-.6-2.5-3.2-4.1-5.7-3.5-2.5.6-4.1,3.2-3.5,5.7.4,1.7,1.8,3.1,3.5,3.5v4.2H2.2V4.4c0-1.2,1-2.2,2.2-2.2h25.1v29.9c0,1.9,1.6,3.5,3.5,3.5h36.6v19.9h-16.4v-5.2c2.5-.6,4.1-3.2,3.5-5.7s-3.2-4.1-5.7-3.5c-2.5.6-4.1,3.2-3.5,5.7.4,1.7,1.8,3.1,3.5,3.5v6.3c0,.6.5,1.1,1.1,1.1h17.5v9.7c0,1.2-1,2.2-2.2,2.2h0ZM34,51.7c0,1.4-1.1,2.5-2.5,2.5-1.4,0-2.5-1.1-2.5-2.5,0-1.4,1.1-2.5,2.5-2.5s0,0,0,0c1.4,0,2.5,1.1,2.5,2.5ZM18.1,42.1c0-1.4,1.1-2.5,2.5-2.5s2.5,1.1,2.5,2.5-1.1,2.5-2.5,2.5c-1.4,0-2.5-1.1-2.5-2.5ZM20.6,22.2c-1.4,0-2.5-1.1-2.5-2.5s1.1-2.5,2.5-2.5c1.4,0,2.5,1.1,2.5,2.5,0,1.4-1.1,2.5-2.5,2.5h0ZM52.1,48.2c-1.4,0-2.5-1.1-2.5-2.5,0-1.4,1.1-2.5,2.5-2.5,1.4,0,2.5,1.1,2.5,2.5h0c0,1.4-1.1,2.5-2.5,2.5Z"/></g></svg>