<?xml version="1.0" encoding="UTF-8"?><svg id="uuid-ef568d29-4195-495c-93d1-05af7695c5e3" xmlns="http://www.w3.org/2000/svg" viewBox="0 0 71.1 76.1"><g id="uuid-b73e1fa1-dcac-4c5c-8dbb-1ae5561f48ac"><path d="M64.6,55.1c-1.9,0-3.7.8-4.9,2.3l-5.6-3.2v-12.1l11.1-6.4c.5-.3.7-1,.4-1.6-.3-.5-1-.7-1.6-.4l-11.1,6.4-10.5-6.1v-12.1l5.6-3.2c2.3,2.8,6.4,3.1,9.2.8,2.8-2.3,3.1-6.4.8-9.2-2.3-2.8-6.4-3.1-9.2-.8-2.1,1.8-2.9,4.7-1.9,7.2l-5.6,3.2-10.5-6.1V1.1c0-.6-.5-1.1-1.1-1.1s-1.1.5-1.1,1.1v12.8l-10.5,6.1-5.6-3.2c1.2-3.4-.5-7.1-3.9-8.3-3.4-1.2-7.1.5-8.3,3.9-1.2,3.4.5,7.1,3.9,8.3,2.5.9,5.4.2,7.1-1.9l5.6,3.2v12.1l-11.1,6.4c-.5.3-.7,1-.4,1.6.3.5,1,.7,1.6.4h0l11.1-6.4,10.5,6.1v12.1l-5.6,3.2c-2.3-2.8-6.4-3.1-9.2-.8-2.8,2.3-3.1,6.4-.8,9.2,2.3,2.8,6.4,3.1,9.2.8,2.1-1.8,2.9-4.7,1.9-7.2l5.6-3.2,10.5,6.1v12.8c0,.6.5,1.1,1.1,1.1s1.1-.5,1.1-1.1v-12.8l10.5-6.1,5.6,3.2c-.3.7-.4,1.4-.4,2.2,0,3.6,2.9,6.5,6.5,6.5s6.5-2.9,6.5-6.5-2.9-6.5-6.5-6.5h0ZM53,10.4c2.3,0,4.2,1.9,4.2,4.2,0,2.3-1.9,4.2-4.2,4.2-2.3,0-4.2-1.9-4.2-4.2,0-2.3,1.9-4.2,4.2-4.2ZM6.5,18.8c-2.3,0-4.2-1.9-4.2-4.2,0-2.3,1.9-4.2,4.2-4.2s4.2,1.9,4.2,4.2h0c0,2.3-1.9,4.2-4.2,4.2h0ZM18.1,65.8c-2.3,0-4.2-1.9-4.2-4.2s1.9-4.2,4.2-4.2,4.2,1.9,4.2,4.2c0,2.3-1.9,4.2-4.2,4.2h0ZM19.2,21.9l10.5-6.1,10.5,6.1v12.1l-10.5,6.1-10.5-6.1v-12.1ZM51.9,54.2l-10.5,6.1-10.5-6.1v-12.1l10.5-6.1,10.5,6.1v12.1ZM64.6,65.8c-2.3,0-4.2-1.9-4.2-4.2,0-2.3,1.9-4.2,4.2-4.2,2.3,0,4.2,1.9,4.2,4.2h0c0,2.3-1.9,4.2-4.2,4.2h0Z"/></g></svg>