<?xml version="1.0" encoding="UTF-8"?><svg id="uuid-9fea5965-992b-4645-844a-541f25c1fa16" xmlns="http://www.w3.org/2000/svg" viewBox="0 0 91.1 89.4"><defs><style>.uuid-29ce8c11-7a14-43b1-b6dc-ef954cd75582{stroke-linejoin:round;}.uuid-29ce8c11-7a14-43b1-b6dc-ef954cd75582,.uuid-ed7f421a-6911-4925-b201-8ef9ce1a6cc7,.uuid-b3293298-394b-4fab-a54c-e877e6f2643f,.uuid-4a48a676-4f41-4431-9c8d-19aa269e5359{stroke:#000;stroke-width:3px;}.uuid-29ce8c11-7a14-43b1-b6dc-ef954cd75582,.uuid-b3293298-394b-4fab-a54c-e877e6f2643f{stroke-linecap:round;}.uuid-29ce8c11-7a14-43b1-b6dc-ef954cd75582,.uuid-b3293298-394b-4fab-a54c-e877e6f2643f,.uuid-4a48a676-4f41-4431-9c8d-19aa269e5359{fill:none;}.uuid-ed7f421a-6911-4925-b201-8ef9ce1a6cc7{fill:#fff;}.uuid-ed7f421a-6911-4925-b201-8ef9ce1a6cc7,.uuid-b3293298-394b-4fab-a54c-e877e6f2643f,.uuid-4a48a676-4f41-4431-9c8d-19aa269e5359{stroke-miterlimit:10;}</style></defs><g id="uuid-024fd4d2-0511-4272-8bfe-746ec61e6c78"><path class="uuid-4a48a676-4f41-4431-9c8d-19aa269e5359" d="M21.1,4.8c-.4,0-.8,0-1.1.1-1.3-2-3.6-3.4-6.1-3.4s-4.8,1.4-6.1,3.4c-.4,0-.7-.1-1.1-.1-2.8,0-5.1,2.3-5.1,5.1h0c0,2.8,2.3,5.1,5.1,5.1s1.8-.3,2.5-.7c1.3,1.1,2.9,1.8,4.7,1.8s3.5-.7,4.7-1.8c.7.4,1.6.7,2.5.7,2.8,0,5.1-2.3,5.1-5.1h0c0-2.8-2.3-5.1-5.1-5.1Z"/><path class="uuid-ed7f421a-6911-4925-b201-8ef9ce1a6cc7" d="M66.2,25.8c.5-.9.8-1.9.8-3.1,0-3.2-2.5-5.9-5.7-6.1-1-1.9-3-3.2-5.3-3.2s-4.4,1.4-5.4,3.4c-2.6.7-4.5,3.1-4.5,5.8s.3,2.2.8,3.1c-1.2,1.1-2,2.7-2,4.4h0c0,3.3,2.7,6.1,6.1,6.1h0c2.4,0,4.5-1.4,5.5-3.5,1,2.1,3.1,3.5,5.5,3.5s6.1-2.7,6.1-6.1h0c0-1.8-.8-3.3-2-4.4Z"/><path class="uuid-ed7f421a-6911-4925-b201-8ef9ce1a6cc7" d="M87.3,23.3c.6-1.1,1-2.3,1-3.6,0-3.8-3-6.9-6.7-7.1-1.2-2.2-3.6-3.7-6.3-3.7s-5.2,1.6-6.4,4c-3,.8-5.2,3.6-5.2,6.9s.4,2.5,1,3.6c-1.4,1.3-2.3,3.2-2.3,5.2h0c0,3.9,3.2,7.1,7.1,7.1h0c2.9,0,5.3-1.7,6.5-4.1,1.1,2.4,3.6,4.1,6.5,4.1s7.1-3.2,7.1-7.1h0c0-2.1-.9-3.9-2.3-5.2Z"/><line class="uuid-b3293298-394b-4fab-a54c-e877e6f2643f" x1="70.8" y1="26.1" x2="76.1" y2="29.5"/><line class="uuid-b3293298-394b-4fab-a54c-e877e6f2643f" x1="80.9" y1="26.1" x2="75.5" y2="29.5"/><line class="uuid-b3293298-394b-4fab-a54c-e877e6f2643f" x1="56.5" y1="24.9" x2="56.5" y2="44.3"/><line class="uuid-b3293298-394b-4fab-a54c-e877e6f2643f" x1="52.2" y1="28.1" x2="55.9" y2="31.1"/><line class="uuid-b3293298-394b-4fab-a54c-e877e6f2643f" x1="75.8" y1="22.3" x2="75.8" y2="45.1"/><path class="uuid-ed7f421a-6911-4925-b201-8ef9ce1a6cc7" d="M3.8,45.2l13.2-18.8c2-2.9,6.3-3,8.5-.2l15,19.1"/><path class="uuid-ed7f421a-6911-4925-b201-8ef9ce1a6cc7" d="M22.2,44.3l8.8-12.6c1.4-2,4.2-2,5.7-.2l10.1,12.8"/><path class="uuid-ed7f421a-6911-4925-b201-8ef9ce1a6cc7" d="M89.2,44.8c0,23.8-19.3,43.1-43.1,43.1S2.9,68.6,2.9,44.8h86.2Z"/><path class="uuid-ed7f421a-6911-4925-b201-8ef9ce1a6cc7" d="M38.9,44.3s.8,4.3,9.1,9.1c8.3,4.8,13.9,9.3,11.6,19.7s-5.6,14.7-5.6,14.7"/><path class="uuid-ed7f421a-6911-4925-b201-8ef9ce1a6cc7" d="M69.1,45s8.9,3.9,6.8,10.6-3.9,7.1-3.2,13.1,1.9,8.5,1.9,8.5"/><path class="uuid-29ce8c11-7a14-43b1-b6dc-ef954cd75582" d="M41.9,4c1.8,0,3.2,1.4,3.2,3.2,0-1.8,1.4-3.2,3.2-3.2"/><path class="uuid-29ce8c11-7a14-43b1-b6dc-ef954cd75582" d="M32.6,16c1.8,0,3.2,1.4,3.2,3.2,0-1.8,1.4-3.2,3.2-3.2"/></g></svg>