<?xml version="1.0" encoding="UTF-8"?><svg id="uuid-589116b7-be9e-4027-a028-db5e7c0e7777" xmlns="http://www.w3.org/2000/svg" viewBox="0 0 90.9 89.2"><defs><style>.uuid-514c2778-c62e-4aba-adda-1c4452c923d5{fill:#fff;}</style></defs><g id="uuid-2ec30a7a-ad85-43d5-9738-94b61159347e"><path class="uuid-514c2778-c62e-4aba-adda-1c4452c923d5" d="M6.6,16.4c.8,0,1.6-.1,2.3-.4,1.4,1,3.2,1.5,4.9,1.5s3.5-.5,4.9-1.5c.7.3,1.5.4,2.3.4,3.6,0,6.6-2.9,6.6-6.6s-3.2-6.8-7-6.5c-1.7-2.1-4.1-3.3-6.8-3.3s-5.1,1.2-6.8,3.3C3.2,3,0,6.1,0,9.8s2.9,6.6,6.6,6.6ZM6.6,6.3c.2,0,.5,0,.8,0l1,.2.6-.9c1.1-1.7,2.9-2.7,4.8-2.7s3.8,1,4.8,2.7l.6.9,1-.2c.3,0,.5,0,.8,0,2,0,3.6,1.6,3.6,3.6s-1.6,3.6-3.6,3.6-1.2-.2-1.8-.5l-.9-.5-.8.7c-1,.9-2.4,1.4-3.7,1.4s-2.7-.5-3.7-1.4l-.8-.7-.9.5c-.6.3-1.2.5-1.8.5-2,0-3.6-1.6-3.6-3.6s1.6-3.6,3.6-3.6Z"/><path class="uuid-514c2778-c62e-4aba-adda-1c4452c923d5" d="M77.2,35.4c1.5,1.1,3.2,1.7,5.1,1.7,4.8,0,8.6-3.9,8.6-8.6s-.7-3.9-2-5.5c.4-1.1.7-2.2.7-3.3,0-4.3-3.1-7.9-7.3-8.5-1.6-2.4-4.3-3.8-7.2-3.8s-5.8,1.6-7.4,4.2c-2,.7-3.6,2.2-4.6,3.9-.3-.1-.7-.2-1-.3-1.4-2-3.7-3.3-6.2-3.3s-5.1,1.4-6.4,3.6c-2.9,1.1-4.9,3.9-4.9,7.1s.2,1.9.5,2.8c-1.1,1.3-1.7,3-1.7,4.7,0,4.2,3.4,7.6,7.6,7.6s2.7-.4,3.9-1.1v6.5h-7.1l-9.9-12.6c-1-1.3-2.5-1.9-4.1-1.9-1.2,0-2.4.5-3.3,1.3l-3.8-4.8c-1.3-1.7-3.4-2.6-5.5-2.6-2.2,0-4.1,1.1-5.4,2.9L3.3,43.2h-1.9v1.5c0,24.6,20,44.5,44.5,44.5s6-.3,8.8-.9l.4.3s.1-.2.3-.4c20-4.4,35.1-22.2,35.1-43.5v-1.5h-13.3v-7.8ZM51,34.7c-2.5,0-4.6-2-4.6-4.6s.5-2.5,1.5-3.3l.9-.8-.6-1c-.4-.7-.6-1.5-.6-2.3,0-2,1.4-3.8,3.3-4.4l.6-.2.3-.6c.8-1.6,2.3-2.5,4.1-2.5s3.2.9,4,2.4l.4.7h.8c.3,0,.7.1,1,.2,0,.4-.1.9-.1,1.3,0,1.1.2,2.3.7,3.3-1.3,1.5-2,3.5-2,5.5s1,4.5,2.5,6.1c-.4.1-.8.2-1.3.2-1.8,0-3.4-1-4.1-2.6v-7.2c0-.8-.7-1.5-1.5-1.5s-1.5.7-1.5,1.5v3.5l-1.9-1.5c-.6-.5-1.6-.4-2.1.2-.5.6-.4,1.6.2,2.1l3.7,2.9s0,0,0,0v.4c-.8,1.3-2.3,2.2-3.9,2.2ZM65.8,16.9c.7-1.3,1.9-2.3,3.4-2.7l.6-.2.3-.6c1-1.9,2.9-3.1,5-3.1s3.9,1.1,4.9,2.9l.4.7h.8c3,.2,5.3,2.7,5.3,5.7s-.3,2-.8,2.8l-.6,1,.9.8c1.2,1.1,1.8,2.5,1.8,4.1,0,3.1-2.5,5.6-5.6,5.6s-4.2-1.3-5.1-3.3h0v-.5s0,0,0-.1c0-.1.1-.2.2-.4l4.1-2.7c.7-.4.9-1.4.4-2.1-.4-.7-1.4-.9-2.1-.4l-2.7,1.8v-4.3c0-.8-.7-1.5-1.5-1.5s-1.5.7-1.5,1.5v4.3l-2.7-1.8c-.7-.4-1.6-.2-2.1.4-.4.7-.2,1.6.4,2.1l4.1,2.7c0,.1,0,.3.2.4,0,0,0,0,0,.1v1c-1,1.7-2.8,2.7-4.8,2.7s-.6,0-.9,0c-.5,0-1-.2-1.5-.5-.5-.2-.9-.5-1.3-.8-1.2-1-2-2.6-2-4.3s.2-1.6.5-2.4c.3-.6.7-1.2,1.3-1.7l.9-.8-.6-1c-.5-.9-.8-1.8-.8-2.8s0-.8.1-1.2c.1-.5.3-1,.6-1.5ZM75,74.3c-.3-1.3-.8-3.2-1.1-5.9-.4-3.6.1-4.8,1.2-7.3.6-1.3,1.2-2.9,2-5.2,1.3-4.1-.8-7.5-3.4-9.8h13.8c-.4,11-5.1,20.9-12.4,28.1ZM57.3,84.6c1.1-2.5,2.5-6.2,3.6-11.3,2.6-11.6-4-16.5-12.3-21.3-3.9-2.3-6-4.4-7.1-5.9h26.8,0c.3.2,7.6,3.5,5.9,8.9-.7,2.2-1.3,3.6-1.9,4.9-1.2,2.7-1.9,4.4-1.4,8.8.5,4,1.1,6.5,1.6,7.8-4.4,3.7-9.6,6.5-15.2,8.1ZM45.9,86.2c-22.4,0-40.7-17.8-41.5-40h33.6c.9,1.9,3.3,5.1,9.2,8.5,8.9,5.2,12.8,9.2,10.8,18-1.5,6.8-3.4,10.9-4.5,12.8-2.5.5-5,.7-7.6.7ZM21.2,25.5c1.2,0,2.3.5,3.1,1.4l4.3,5.4-7.5,10.7H6.9l11.2-16c.7-1,1.8-1.6,3-1.6ZM32.2,32.5c0,0,0-.1.1-.2.4-.4.9-.7,1.5-.7.7,0,1.3.3,1.7.8l8.5,10.8h-19.3l5.8-8.3.9-1.3.8-1.1ZM57.9,43.2v-6.7c1.2.8,2.6,1.3,4.1,1.3s3-.5,4.2-1.3c1,.4,2.1.6,3.2.6,1.7,0,3.4-.5,4.8-1.5v7.6h-16.3Z"/><path class="uuid-514c2778-c62e-4aba-adda-1c4452c923d5" d="M41.8,5.5c.9,0,1.7.8,1.7,1.7s.7,1.5,1.5,1.5,1.5-.7,1.5-1.5.8-1.7,1.7-1.7,1.5-.7,1.5-1.5-.7-1.5-1.5-1.5c-1.2,0-2.3.5-3.2,1.2-.8-.8-2-1.2-3.2-1.2s-1.5.7-1.5,1.5.7,1.5,1.5,1.5Z"/><path class="uuid-514c2778-c62e-4aba-adda-1c4452c923d5" d="M32.5,17.5c.9,0,1.7.8,1.7,1.7s.7,1.5,1.5,1.5,1.5-.7,1.5-1.5.8-1.7,1.7-1.7,1.5-.7,1.5-1.5-.7-1.5-1.5-1.5c-1.2,0-2.3.5-3.2,1.2-.8-.8-2-1.2-3.2-1.2s-1.5.7-1.5,1.5.7,1.5,1.5,1.5Z"/></g></svg>