<?xml version="1.0" encoding="UTF-8"?><svg id="uuid-66498b0b-7dfb-44af-ad07-eca405e0d9f9" xmlns="http://www.w3.org/2000/svg" viewBox="0 0 78.5 78.5"><defs><style>.uuid-5355c036-e7d6-4456-b01b-b0621669bae8{fill:#fff;opacity:.7;}</style></defs><g id="uuid-d20e7d3f-ce58-42cc-87b6-21eedfcf7649"><path class="uuid-5355c036-e7d6-4456-b01b-b0621669bae8" d="M39.2,0C17.6,0,0,17.6,0,39.2s17.6,39.2,39.2,39.2,39.2-17.6,39.2-39.2S60.9,0,39.2,0ZM58.5,42.2l-28.2,24.5c-1,.9-2.2,1.3-3.4,1.3s-2.9-.6-3.9-1.8c-1.9-2.2-1.7-5.5.5-7.4l23.7-20.6-21.3-18.7c-2.2-1.9-2.4-5.2-.5-7.4,1.9-2.2,5.2-2.4,7.4-.5l25.8,22.6c1.1,1,1.8,2.4,1.8,3.9s-.7,2.9-1.8,3.9Z"/></g></svg>